HIERARCHY
ROOT Hips
{
	OFFSET -0.001795 -0.223333 0.028219
	CHANNELS 6 Xposition Yposition Zposition Zrotation Yrotation Xrotation 
	JOINT LeftUpLeg
	{
		OFFSET 0.069520 -0.091406 -0.006815
		CHANNELS 3 Zrotation Yrotation Xrotation
		JOINT LeftLeg
		{
			OFFSET 0.034277 -0.375199 -0.004496
			CHANNELS 3 Zrotation Yrotation Xrotation
			JOINT LeftFoot
			{
				OFFSET -0.013596 -0.397961 -0.043693
				CHANNELS 3 Zrotation Yrotation Xrotation
				JOINT LeftToe
				{
					OFFSET 0.026358 -0.055791 0.119288
					CHANNELS 3 Zrotation Yrotation Xrotation
					End Site
					{
						OFFSET 0.000000 0.000000 0.000000
					}
				}
			}
		}
	}
	JOINT RightUpLeg
	{
		OFFSET -0.067670 -0.090522 -0.004320
		CHANNELS 3 Zrotation Yrotation Xrotation
		JOINT RightLeg
		{
			OFFSET -0.038290 -0.382569 -0.008850
			CHANNELS 3 Zrotation Yrotation Xrotation
			JOINT RightFoot
			{
				OFFSET 0.015774 -0.398415 -0.042312
				CHANNELS 3 Zrotation Yrotation Xrotation
				JOINT RightToe
				{
					OFFSET -0.025372 -0.048144 0.123348
					CHANNELS 3 Zrotation Yrotation Xrotation
					End Site
					{
						OFFSET 0.000000 0.000000 0.000000
					}
				}
			}
		}
	}
	JOINT Spine
	{
		OFFSET -0.002533 0.108963 -0.026696
		CHANNELS 3 Zrotation Yrotation Xrotation
		JOINT Spine1
		{
			OFFSET 0.005487 0.135180 0.001092
			CHANNELS 3 Zrotation Yrotation Xrotation
			JOINT Spine2
			{
				OFFSET 0.001457 0.052922 0.025425
				CHANNELS 3 Zrotation Yrotation Xrotation
				JOINT Neck
				{
					OFFSET -0.002778 0.213870 -0.042857
					CHANNELS 3 Zrotation Yrotation Xrotation
					JOINT Head
					{
						OFFSET 0.005152 0.064970 0.051349
						CHANNELS 3 Zrotation Yrotation Xrotation
						End Site
						{
							OFFSET 0.000000 0.000000 0.000000
						}
					}
				}
				JOINT LeftShoulder
				{
					OFFSET 0.078845 0.121749 -0.034090
					CHANNELS 3 Zrotation Yrotation Xrotation
					JOINT LeftArm
					{
						OFFSET 0.090977 0.030469 -0.008868
						CHANNELS 3 Zrotation Yrotation Xrotation
						JOINT LeftForeArm
						{
							OFFSET 0.259612 -0.012772 -0.027456
							CHANNELS 3 Zrotation Yrotation Xrotation
							JOINT LeftHand
							{
								OFFSET 0.249234 0.008986 -0.001171
								CHANNELS 3 Zrotation Yrotation Xrotation
								End Site
								{
									OFFSET 0.000000 0.000000 0.000000
								}
							}
						}
					}
				}
				JOINT RightShoulder
				{
					OFFSET -0.081759 0.118833 -0.038615
					CHANNELS 3 Zrotation Yrotation Xrotation
					JOINT RightArm
					{
						OFFSET -0.096012 0.032551 -0.009143
						CHANNELS 3 Zrotation Yrotation Xrotation
						JOINT RightForeArm
						{
							OFFSET -0.253742 -0.013329 -0.021401
							CHANNELS 3 Zrotation Yrotation Xrotation
							JOINT RightHand
							{
								OFFSET -0.255298 0.007772 -0.005559
								CHANNELS 3 Zrotation Yrotation Xrotation
								End Site
								{
									OFFSET 0.000000 0.000000 0.000000
								}
							}
						}
					}
				}
			}
		}
	}
}
MOTION
Frames: 12
Frame Time: 0.050000
0.322122 0.947274 0.770407 -0.040836 2.592460 0.289028 12.467984 0.062206 -23.475378 -9.420561 2.107333 26.021350 5.626097 13.210749 7.538645 0.000000 0.000000 0.000000 1.308844 0.141281 -1.473289 -0.814700 0.819688 17.251296 -0.035065 2.720659 -5.126032 0.000000 0.000000 0.000000 3.453128 -0.054119 0.298750 -0.306381 0.327406 -5.872135 -3.316880 1.391654 6.112207 3.289146 -1.421395 -8.713795 0.000000 0.000000 0.000000 -11.800937 5.900446 -4.212524 -32.877442 -14.510574 -0.252095 12.985001 -21.682145 -1.818185 0.000000 0.000000 0.000000 4.468922 -8.689193 -3.629030 32.686919 11.554032 -0.545923 -20.253446 24.238408 -2.762087 0.000000 0.000000 0.000000 
0.346396 0.942926 0.800554 -0.246172 2.051617 0.324108 11.689321 -0.041841 -23.863330 -7.482443 1.347989 20.160784 4.003325 10.658430 8.774968 0.000000 0.000000 0.000000 0.329835 0.056074 -0.599659 -0.595587 0.844308 18.879105 -0.385909 1.984513 -5.544664 0.000000 0.000000 0.000000 3.900880 0.004637 -0.574624 -0.435795 0.410187 -7.356271 -2.394968 1.819561 8.179924 3.587314 -1.501241 -9.887132 0.000000 0.000000 0.000000 -10.826479 8.099356 -4.950005 -33.022278 -12.427598 -0.916339 12.992147 -22.986755 -1.918713 0.000000 0.000000 0.000000 2.620116 -10.067698 -3.913154 30.924857 8.108118 -1.436513 -20.487366 24.172567 -2.782761 0.000000 0.000000 0.000000 
0.372206 0.938790 0.830058 -0.355093 2.235076 0.319554 9.800402 -0.408123 -23.485297 -6.654791 1.045181 17.172422 2.885073 8.611001 8.149859 0.000000 0.000000 0.000000 -0.233942 -0.029872 0.346641 -0.762271 0.912087 19.630333 -0.774783 0.963452 -5.822220 0.000000 0.000000 0.000000 3.760000 0.020804 -0.787211 0.174816 0.158456 -7.061681 -2.275802 2.523039 8.478165 4.020235 -1.733122 -9.944714 0.000000 0.000000 0.000000 -9.827223 9.258526 -5.307282 -33.698092 -11.748694 -1.096871 13.497955 -23.440158 -2.129525 0.000000 0.000000 0.000000 2.129974 -11.689761 -4.458158 30.250143 5.228556 -2.050476 -21.539770 25.063663 -3.013985 0.000000 0.000000 0.000000 
0.399484 0.933523 0.860078 -0.323178 2.364845 -0.212899 7.234089 -0.874045 -23.128675 -5.155856 0.650747 17.267893 1.293112 6.154603 9.124038 0.000000 0.000000 0.000000 -1.052039 -0.018620 0.403268 -2.013758 1.456408 23.366287 -1.121787 -0.324446 -5.386084 0.000000 0.000000 0.000000 3.561871 0.012825 -0.567417 0.170422 0.218914 -8.849037 -1.759180 3.115905 10.616428 5.223546 -2.343866 -11.354004 0.000000 0.000000 0.000000 -9.068574 10.346374 -5.629341 -34.182402 -10.748072 -1.497886 11.844153 -26.152484 -2.040809 0.000000 0.000000 0.000000 1.734051 -13.552554 -5.118793 31.766080 3.067761 -2.739243 -23.072045 26.493159 -3.403811 0.000000 0.000000 0.000000 
0.428095 0.924516 0.890455 -1.090771 2.941975 -0.300475 5.042511 -1.222941 -21.683461 -4.481826 0.433155 19.132147 1.964339 6.296637 5.736732 0.000000 0.000000 0.000000 -1.265878 0.112929 -1.012536 -3.704606 2.395566 30.286732 -1.430817 -1.368459 -5.220563 0.000000 0.000000 0.000000 3.848265 0.101647 -1.796263 0.931483 -0.102594 -7.853167 -2.404235 4.266803 10.185544 6.037562 -3.064890 -9.610341 0.000000 0.000000 0.000000 -8.088016 7.941678 -4.533701 -34.472720 -9.276393 -1.811769 10.149494 -27.174729 -1.869294 0.000000 0.000000 0.000000 3.033084 -14.402137 -5.653312 31.976059 0.240992 -3.387413 -24.218001 30.215991 -4.036991 0.000000 0.000000 0.000000 
0.456920 0.910476 0.918877 -0.697744 5.686547 -1.444894 1.526281 -1.715356 -19.540759 -4.119879 0.085171 23.189432 3.432549 5.933999 -3.203345 0.000000 0.000000 0.000000 -1.943981 0.472860 -5.492639 -4.013146 2.873706 44.962439 -0.880746 -1.842175 -1.010514 0.000000 0.000000 0.000000 2.787306 0.041620 -0.805130 1.113526 -0.098944 -8.327245 -2.199824 2.536493 11.069168 6.311067 -2.843640 -12.247399 0.000000 0.000000 0.000000 -11.971608 6.068524 -4.628599 -32.736097 -8.643426 -1.849498 6.657213 -33.045065 -1.247169 0.000000 0.000000 0.000000 4.428383 -15.698835 -6.395034 33.911702 -0.745732 -3.903286 -26.389042 34.800816 -5.355151 0.000000 0.000000 0.000000 
0.483581 0.891181 0.943047 0.480033 7.494373 -4.491521 -1.853668 -1.941072 -16.784917 -4.407930 -0.165095 28.798949 5.064264 6.847954 -9.496931 0.000000 0.000000 0.000000 -3.019405 0.882075 -13.279075 -5.349086 4.133240 64.692626 1.384997 -0.829695 9.187987 0.000000 0.000000 0.000000 0.452834 -0.084095 2.042719 2.181553 -0.641222 -5.925600 -3.283245 1.678840 7.887192 5.992349 -3.027452 -9.623188 0.000000 0.000000 0.000000 -12.853830 2.115660 -3.127198 -35.148338 -8.845869 -1.657488 -0.350664 -36.505222 0.821270 0.000000 0.000000 0.000000 6.249503 -14.771357 -6.259685 37.174173 -2.896492 -4.659128 -29.983234 43.196648 -8.278488 0.000000 0.000000 0.000000 
0.505900 0.867862 0.962422 1.339795 9.271007 -7.787669 -4.652913 -1.989758 -14.128762 -4.152221 -0.790634 35.038389 6.458829 6.059441 -18.075065 0.000000 0.000000 0.000000 -3.164995 1.268792 -23.922089 -5.402924 4.561828 82.417700 2.359321 -2.470824 17.561461 0.000000 0.000000 0.000000 -0.155590 -0.302300 6.965532 1.693393 -0.366473 -6.564675 -3.627191 -1.485221 8.297896 5.705829 -2.929657 -10.464528 0.000000 0.000000 0.000000 -18.579162 -1.681591 -1.797835 -35.247683 -8.791249 -1.781603 -13.333958 -41.764485 6.199298 0.000000 0.000000 0.000000 10.429781 -13.109649 -6.305323 39.430410 -2.690562 -5.002926 -33.516341 53.293659 -13.179835 0.000000 0.000000 0.000000 
0.523094 0.845306 0.977880 1.079243 8.554726 -10.446199 -5.657116 -2.115908 -13.843106 -4.708082 -0.849534 41.779366 6.992191 5.452056 -22.913346 0.000000 0.000000 0.000000 -1.362709 2.224967 -34.543062 -0.554810 0.125452 87.698447 -1.103268 -5.994938 8.630079 0.000000 0.000000 0.000000 0.317884 -0.536942 10.904887 2.825809 -1.008081 -4.731394 -6.457798 -1.590471 5.252055 6.503063 -3.345947 -10.905273 0.000000 0.000000 0.000000 -20.959074 -3.804380 -1.118848 -37.679537 -9.606320 -1.371824 -29.154353 -43.205860 12.724090 0.000000 0.000000 0.000000 14.666669 -12.568860 -6.793836 42.094439 -1.042891 -4.665082 -28.438602 63.600903 -13.550023 0.000000 0.000000 0.000000 
0.536178 0.824921 0.990865 1.214597 6.766104 -12.147394 -6.040172 -2.210545 -13.945279 -6.012042 -0.017846 47.000058 7.362251 5.094084 -27.323328 0.000000 0.000000 0.000000 0.008563 3.524621 -44.399610 8.926317 -8.045469 77.559875 -6.126694 -14.387201 -2.057460 0.000000 0.000000 0.000000 0.471983 -0.678548 13.491756 2.036354 -0.676600 -4.834431 -6.853569 -3.468245 5.578355 6.163050 -3.444430 -10.490217 0.000000 0.000000 0.000000 -21.976966 -6.335428 0.993103 -43.102179 -10.901085 -1.416236 -32.899829 -43.671832 14.970965 0.000000 0.000000 0.000000 13.315719 -9.367454 -5.369047 47.226886 -0.015789 -4.795997 -11.878824 71.820117 -5.111936 0.000000 0.000000 0.000000 
0.545285 0.807028 1.002396 1.230942 5.401375 -13.053614 -5.529192 -2.044769 -13.329613 -8.728824 1.830846 49.073300 7.885140 6.189907 -30.415310 0.000000 0.000000 0.000000 1.655870 5.248150 -52.924698 19.741551 -13.591276 61.064431 -8.183672 -19.040818 -4.339357 0.000000 0.000000 0.000000 0.584116 -0.829755 16.232071 1.688305 -0.467130 -6.226520 -8.378376 -2.941015 5.153878 6.288794 -3.728378 -9.188171 0.000000 0.000000 0.000000 -24.422415 -9.115883 2.393874 -44.487560 -10.081770 -1.683629 -34.795368 -44.065768 15.899410 0.000000 0.000000 0.000000 17.260213 -7.625167 -5.158345 48.146182 -0.191151 -4.995314 4.944324 74.691940 7.306977 0.000000 0.000000 0.000000 
0.550759 0.792572 1.013432 2.010125 5.137105 -12.730637 -6.843222 -2.634997 -15.760361 -9.676244 2.643761 54.000490 8.203096 7.326362 -32.195227 0.000000 0.000000 0.000000 1.798143 6.089827 -59.691841 26.669140 -15.057107 49.615692 -11.824473 -26.224095 2.829035 0.000000 0.000000 0.000000 0.480380 -0.908807 17.944327 0.920857 -0.110353 -6.773464 -9.454352 -3.520439 5.242002 6.961180 -4.580707 -7.348122 0.000000 0.000000 0.000000 -25.563959 -9.647664 2.888795 -42.651846 -13.303605 -0.570005 -33.536158 -41.302697 14.352619 0.000000 0.000000 0.000000 18.349668 -6.996873 -5.125148 50.492225 1.080053 -4.723372 12.726061 77.027529 13.584575 0.000000 0.000000 0.000000 
